<?xml version="1.0" encoding="UTF-8"?> <svg xmlns="http://www.w3.org/2000/svg" id="a043db46-acf7-4a1f-91a6-9fd3897e67c7" data-name="katman 1" viewBox="0 0 2735.85 599.87"><path d="M299.93,0A299.94,299.94,0,0,0,0,299.93c0,.05,0,.09,0,.13a5.68,5.68,0,0,0,0,.59c0,.14,0,.28,0,.42a.34.34,0,0,0,0,.1,2.57,2.57,0,0,0,.07.4,3.85,3.85,0,0,0,.08.47c0,.15.07.31.11.46s.08.31.13.46.13.37.2.55.09.25.15.38.24.53.37.78l.16.26c.1.18.21.37.33.55l.2.27c.11.16.23.32.35.47l.24.28c.12.14.25.28.38.41l.28.28.39.35.32.26a3.91,3.91,0,0,0,.41.3c.11.09.24.17.36.25l.41.25.4.22.43.2.42.19.46.16.42.15.51.13c.14,0,.27.07.41.09l.6.1.35,0a7.94,7.94,0,0,0,1,.05H289.93V589.87c0,.33,0,.65.05,1,0,.11,0,.23,0,.35s.05.4.09.6.07.27.1.41.08.34.13.5.09.29.14.43.11.31.17.46l.18.42.21.43.22.4.25.41.24.36.3.4.27.33.35.39.27.28.41.37.28.25c.15.12.31.23.47.34l.28.21.53.32.27.16c.24.13.48.24.73.35s.32.13.48.19l.51.19.47.13.45.11a4,4,0,0,0,.48.08l.39.07h.08a10.57,10.57,0,0,0,1.14.07H300a299.93,299.93,0,0,0,212-512A298,298,0,0,0,299.93,0ZM579.67,289.93H309.93V20.2C456.35,25.37,574.5,143.51,579.67,289.93ZM347.44,361.58,309.93,509.65V324.08l5.14,5.13Zm-57.51-85.79-37.5-37.5,37.5-148.07Zm71.65,71.65-37.5-37.51H509.65ZM287,20.31l-53.9,212.8L20.31,287C26.89,142.92,142.92,26.89,287,20.31ZM90.22,289.93l148.07-37.5,37.5,37.5ZM312.86,579.56l53.9-212.8,212.8-53.9C573,457,457,573,312.86,579.56Z"></path><path d="M799.31,373.08a54,54,0,0,0,11.2,11.79,64.61,64.61,0,0,0,13.24,7.95,68.36,68.36,0,0,0,14,4.53A66,66,0,0,0,851,398.8h160.3V354.37H851q-8.55,0-13.24-4.7t-4.7-13.25v-120q0-9.06,4.61-13.67T851,198.16h160.3V153.73H851a67,67,0,0,0-20.51,2.91,58.5,58.5,0,0,0-16,7.77,55.62,55.62,0,0,0-11.87,11.2,62.49,62.49,0,0,0-8,13.24,67.63,67.63,0,0,0-4.52,14,66.22,66.22,0,0,0-1.46,13.25V336.42A67.73,67.73,0,0,0,791.54,357,58.52,58.52,0,0,0,799.31,373.08Z"></path><path d="M1093.17,338.64h156.2V398.8h44.44V176.12a22.45,22.45,0,0,0-1.71-8.72,22,22,0,0,0-12-12,22.45,22.45,0,0,0-8.72-1.71H1171.27a129,129,0,0,0-48.87,9.06,116.78,116.78,0,0,0-38.8,25.29,115.41,115.41,0,0,0-25.63,38.8q-9.23,22.55-9.23,49.38V398.8h44.43Zm0-62.38q0-18.61,5.22-31.7a69.88,69.88,0,0,1,13.24-21.79,64,64,0,0,1,17.6-13.67,95.85,95.85,0,0,1,18.2-7.35,88.5,88.5,0,0,1,15.21-3q6.58-.6,8.63-.6h78.1v96h-156.2Z"></path><path d="M1360.89,282.42A69.62,69.62,0,0,0,1384,294.81a79.34,79.34,0,0,0,23.24,3.84h102.2a29.66,29.66,0,0,1,11.2,2.05,24,24,0,0,1,8.54,5.81,26.05,26.05,0,0,1,5.38,8.89,32.4,32.4,0,0,1,1.88,11.28q0,12.65-7.09,20.17t-19.91,7.52H1338.07V398.8h171.41a74.42,74.42,0,0,0,15.3-1.71,76.62,76.62,0,0,0,16-5.3,78.52,78.52,0,0,0,15.21-9.23,58.68,58.68,0,0,0,12.81-13.67,70.37,70.37,0,0,0,8.8-18.54,77.92,77.92,0,0,0,3.34-23.67,79.35,79.35,0,0,0-3.25-23.58,67.83,67.83,0,0,0-8.8-18.46,64,64,0,0,0-12.73-13.76A77.2,77.2,0,0,0,1541,261.4a75.94,75.94,0,0,0-16-5.56,78.53,78.53,0,0,0-15.21-2H1407.28q-12.65,0-19.73-7.44t-7.1-20.25q0-12.65,7.1-20.34t19.73-7.69h151.25V153.73H1407.28a79,79,0,0,0-23.24,3.85,68.13,68.13,0,0,0-40.93,34.86Q1336,206.2,1336,226.19t7.09,33.84A67.56,67.56,0,0,0,1360.89,282.42Z"></path><polygon points="1694.39 398.8 1738.83 398.8 1738.83 198.16 1836.75 198.16 1836.75 153.73 1596.3 153.73 1596.3 198.16 1694.39 198.16 1694.39 398.8"></polygon><path d="M1913.83,198.16h146.63c.91,0,1.9.06,3,.17a7,7,0,0,1,3.08,1.12,6.89,6.89,0,0,1,2.39,2.9,13.83,13.83,0,0,1,.94,5.73v28a41,41,0,0,1-2.74,15.47,32.48,32.48,0,0,1-7.77,11.54,38,38,0,0,1-12,7.6,51.32,51.32,0,0,1-15.3,3.5H1931.6v44.44h32l92.63,80.15h68.7l-92.8-80.15a89,89,0,0,0,17.52-1.88,84.78,84.78,0,0,0,18.45-6.07A88.79,88.79,0,0,0,2085.58,300a71.6,71.6,0,0,0,14.78-15.64,76.25,76.25,0,0,0,10.17-21.1,90.46,90.46,0,0,0,3.76-27.18V207.73a61.48,61.48,0,0,0-2.82-17.6,52.44,52.44,0,0,0-9.23-17.52,51.07,51.07,0,0,0-16.66-13.5q-10.26-5.38-25.12-5.38H1891.78a22.81,22.81,0,0,0-8.88,1.71,21,21,0,0,0-7.1,4.78,23,23,0,0,0-4.7,7.18,22.45,22.45,0,0,0-1.71,8.72V398.8h44.44Z"></path><path d="M2376.62,398.8a22.45,22.45,0,0,0,8.72-1.71,22.81,22.81,0,0,0,7.17-4.7,21.11,21.11,0,0,0,4.79-7.09,22.9,22.9,0,0,0,1.71-8.89V153.73h-44.44V354.37h-78.1q-2,0-8.63-.6a88.5,88.5,0,0,1-15.21-3,95.85,95.85,0,0,1-18.2-7.35,64,64,0,0,1-17.6-13.67,70,70,0,0,1-13.24-21.71q-5.22-13-5.22-31.79V153.73h-44.43V276.26a138.67,138.67,0,0,0,5.13,39.05,113.88,113.88,0,0,0,14.1,31.11,106.27,106.27,0,0,0,20.93,23.5,120.6,120.6,0,0,0,25.55,16.32,127.88,127.88,0,0,0,28.11,9.48,138.44,138.44,0,0,0,28.71,3.08Z"></path><path d="M2731.23,159a22.18,22.18,0,0,0-11.79-8,23.09,23.09,0,0,0-14.44.85,21.73,21.73,0,0,0-10.85,9.23L2593,336.93,2491.81,161.08a21.22,21.22,0,0,0-4.62-5.56,21,21,0,0,0-6.07-3.58A23.7,23.7,0,0,0,2467,151a21.81,21.81,0,0,0-11.88,8,22,22,0,0,0-4.53,13.67V398.8h44.43v-146l79.13,138.6a19.53,19.53,0,0,0,8,8,22.39,22.39,0,0,0,10.85,2.74,23.8,23.8,0,0,0,11.19-2.74,19.34,19.34,0,0,0,8.12-8l78.78-138.6v146h44.78V172.7A21.76,21.76,0,0,0,2731.23,159Z"></path></svg> 